<svg version="1.0" xmlns="http://www.w3.org/2000/svg" width="1706.667" height="1178.667" viewBox="0 0 1280 884"><path d="M200.9 2.7l-5.4 2.8.1 6.5c.3 12.7 6.6 34.3 21.2 73 16.1 42.6 21.9 62.2 26.6 90 4.1 24 5 34.4 5.1 59.5v24l-6.2-.3c-9.3-.4-19.2-4.1-44.3-16.2-32.9-15.9-44.6-18.7-73.5-17.7-23.5.9-42.8 5.5-63.2 15.2-25.1 11.8-42.3 27.6-52.5 47.9C1 303-1.2 318.8.9 346c4 52.3 12.3 83.8 25.6 97.6 6.2 6.4 11.2 8.1 18.6 6.4 5.6-1.4 6.4-2.2 4.9-4.7-2.5-4 7-21.6 18.3-33.8 3-3.3 5.6-5.8 5.8-5.5.2.3 2.1 3.9 4.1 8 7.1 14.3 19 26.1 36 35.9 4.6 2.6 16.9 8.8 27.3 13.7 28.9 13.7 40.3 20.9 50.5 32.1 17.7 19.4 26.1 42.2 26.1 71.4 0 15-1.9 27.9-6.7 45.1-10.4 38-30.8 73.7-58 101.7l-11.1 11.4-10.4-2.2c-6.7-1.5-15.2-2.5-24.1-2.8-12.9-.5-14.6-.4-27.9 2.7-11.3 2.6-15.7 3.1-21.2 2.7-3.7-.2-7.4-1-8-1.6-1.6-1.6-3.7-1.4-3.7.4 0 .9 1.3 2.2 3 2.8l2.9 1.3-5.6 1.2c-6.8 1.4-11.3 4.3-14.7 9.5-6.8 10.5-5.5 28.3 3.4 48.3 10.3 22.9 35.3 45 72.5 64.1 30.8 15.7 61 25.4 93.5 29.9 15.4 2.1 56.4 2.4 84.5.6 10.5-.6 28-1.7 39-2.2 43-2.3 69.4-7.4 95-18.3 42.5-18 75.1-39.3 91.6-59.7 15.6-19.3 21.6-40.6 16.5-58.2-6.5-22.4-35.8-29-70.8-15.9l-7.5 2.8-5-4.1C430 714.2 406 689.5 389.5 669c-17.6-21.8-31.7-46-38-65.4-4.3-13.4-5.9-22.9-5.9-35.6.1-8.7.5-11.8 2.8-18.5 6.3-18.6 16.9-32.9 41.8-56.8 9.9-9.5 20-19.9 22.5-23.2 5.9-7.8 11.1-18.3 21.7-43.8 4.8-11.5 10.9-25.4 13.7-31l5.1-10.1 9 9.7c5 5.4 11.8 11.8 15.3 14.2 16.3 11.7 39.2 18.2 50.6 14.4 7.9-2.7 13.8-10.2 13.9-17.4 0-8.7-7.7-27.2-18.1-43-8.8-13.5-33.5-47.9-42.2-58.8-23.1-28.8-50.5-52.1-77.2-65.5-15.6-7.8-25.5-10.7-39.5-11.8-16.5-1.3-29.1 2.1-60.1 16.1-22.9 10.4-34.3 14.3-43.6 15.2l-6.2.6v-53c0-53.6-.6-72.3-4.1-127.3-1-16.8-2.2-35.8-2.6-42.2-.4-6.8-1.1-12.1-1.8-12.6-.6-.5-3.2-1.6-5.8-2.6-2.9-1.1-8-4.7-13.4-9.4-4.7-4.2-9.8-8.5-11.3-9.4-3.8-2.5-8.9-2.2-15.2.9zm669.9 7c-6.9.7-6.7 2.3 2.6 21 20.2 40.4 29.9 69.9 34.1 104.1 1.5 11.9 3.5 55.7 3.8 82.6l.2 15.6h-3.3c-7.6 0-29.7-5.7-62.2-16-32.1-10.1-35.2-11.1-47.3-14-67.7-16.6-123.3 10-161.5 77.3-33.3 58.5-43.7 134.8-27.7 202.7 10.4 44.1 31.1 84.3 69.7 135.3C701.7 648 704.9 656.2 722 729c4 16.8 9.4 37.2 12.1 45.3 10.5 32.3 23.2 50.3 40.9 58.4 4.1 1.9 8.7 4.1 10.1 4.9 2.5 1.3 4.2 1 20.4-3.6 39.9-11.3 53.3-14 70.2-14 26.1 0 45.9 7 83.3 29.3 37.7 22.5 56.4 29.6 77.8 29.7 20 0 37.1-6.1 60.7-22 33.6-22.4 60.3-53.7 79-92.5 15.7-32.5 25.3-63.1 42.6-135.5 14.7-62 16.4-67.3 34.2-112.5 22-55.7 26.1-71.6 26.1-101 0-13.6-.4-19.2-2.2-28.1-10.3-51.3-43.5-107.4-90.8-153.4-39.5-38.3-69.4-57.3-100.3-63.5-12.8-2.6-33.7-1.7-45.1 2-16.6 5.4-25.7 10.9-52.2 32.1-17.4 13.8-28.6 20.9-39.2 24.5-8.6 3-23.3 5.6-25.8 4.6-2.3-.8-4.2-16.9-3.4-27.9.7-10 1.3-14.1 8.1-55.3 11-67 11-94.8-.2-116.9-3.4-6.8-13-16.1-19.5-19.1-10-4.5-24-6.2-38-4.8z" fill="#ffeb3b"/></svg>