<?xml version="1.0" standalone="no"?>
<!DOCTYPE svg PUBLIC "-//W3C//DTD SVG 20010904//EN"
 "http://www.w3.org/TR/2001/REC-SVG-20010904/DTD/svg10.dtd">
<svg version="1.0" xmlns="http://www.w3.org/2000/svg"
 width="1280.000000pt" height="884.000000pt" viewBox="0 0 1280.000000 884.000000"
 preserveAspectRatio="xMidYMid meet">
<metadata>
Created by potrace 1.15, written by Peter Selinger 2001-2017
</metadata>
<g transform="translate(0.000000,884.000000) scale(0.100000,-0.100000)"
fill="#ff0000" stroke="none">
<path d="M2009 8813 l-54 -28 1 -65 c3 -127 66 -343 212 -730 161 -426 219
-622 266 -900 41 -240 50 -344 51 -595 l0 -240 -62 3 c-93 4 -192 41 -443 162
-329 159 -446 187 -735 177 -235 -9 -428 -55 -632 -152 -251 -118 -423 -276
-525 -479 -78 -156 -100 -314 -79 -586 40 -523 123 -838 256 -976 62 -64 112
-81 186 -64 56 14 64 22 49 47 -25 40 70 216 183 338 30 33 56 58 58 55 2 -3
21 -39 41 -80 71 -143 190 -261 360 -359 46 -26 169 -88 273 -137 289 -137
403 -209 505 -321 177 -194 261 -422 261 -714 0 -150 -19 -279 -67 -451 -104
-380 -308 -737 -580 -1017 l-111 -114 -104 22 c-67 15 -152 25 -241 28 -129 5
-146 4 -279 -27 -113 -26 -157 -31 -212 -27 -37 2 -74 10 -80 16 -16 16 -37
14 -37 -4 0 -9 13 -22 30 -28 l29 -13 -56 -12 c-68 -14 -113 -43 -147 -95 -68
-105 -55 -283 34 -483 103 -229 353 -450 725 -641 308 -157 610 -254 935 -299
154 -21 564 -24 845 -6 105 6 280 17 390 22 430 23 694 74 950 183 425 180
751 393 916 597 156 193 216 406 165 582 -65 224 -358 290 -708 159 l-75 -28
-50 41 c-153 124 -393 371 -558 576 -176 218 -317 460 -380 654 -43 134 -59
229 -59 356 1 87 5 118 28 185 63 186 169 329 418 568 99 95 200 199 225 232
59 78 111 183 217 438 48 115 109 254 137 310 l51 101 90 -97 c50 -54 118
-118 153 -142 163 -117 392 -182 506 -144 79 27 138 102 139 174 0 87 -77 272
-181 430 -88 135 -335 479 -422 588 -231 288 -505 521 -772 655 -156 78 -255
107 -395 118 -165 13 -291 -21 -601 -161 -229 -104 -343 -143 -436 -152 l-62
-6 0 530 c0 536 -6 723 -41 1273 -10 168 -22 358 -26 422 -4 68 -11 121 -18
126 -6 5 -32 16 -58 26 -29 11 -80 47 -134 94 -47 42 -98 85 -113 94 -38 25
-89 22 -152 -9z"/>
<path d="M8708 8743 c-69 -7 -67 -23 26 -210 202 -404 299 -699 341 -1041 15
-119 35 -557 38 -826 l2 -156 -33 0 c-76 0 -297 57 -622 160 -321 101 -352
111 -473 140 -677 166 -1233 -100 -1615 -773 -333 -585 -437 -1348 -277 -2027
104 -441 311 -843 697 -1353 225 -297 257 -379 428 -1107 40 -168 94 -372 121
-453 105 -323 232 -503 409 -584 41 -19 87 -41 101 -49 25 -13 42 -10 204 36
399 113 533 140 702 140 261 0 459 -70 833 -293 377 -225 564 -296 778 -297
200 0 371 61 607 220 336 224 603 537 790 925 157 325 253 631 426 1355 147
620 164 673 342 1125 220 557 261 716 261 1010 0 136 -4 192 -22 281 -103 513
-435 1074 -908 1534 -395 383 -694 573 -1003 635 -128 26 -337 17 -451 -20
-166 -54 -257 -109 -522 -321 -174 -138 -286 -209 -392 -245 -86 -30 -233 -56
-258 -46 -23 8 -42 169 -34 279 7 100 13 141 81 553 110 670 110 948 -2 1169
-34 68 -130 161 -195 191 -100 45 -240 62 -380 48z"/>
</g>
</svg>
