<svg version="1.0" xmlns="http://www.w3.org/2000/svg" width="1242.667" height="1706.667" viewBox="0 0 932 1280"><path d="M416.5.6c-1.6.3-8.6 1.1-15.5 2-24.9 3-57.4 8.3-77 12.5-18.7 4-32 9-32 11.9 0 2-7.7 4.1-18.1 5-28.4 2.6-64.7 18.3-80.1 34.7-9.4 10.1-13 20.9-17.8 53.1-5.9 39.6-7.4 58.2-7.4 89.7 0 28.8 0 29.1 2.7 37.8 4.7 15.1 10.8 25 22.7 36.8 17.3 17.2 44.4 30.7 74 36.8 5.8 1.2 14.8 3.6 20.1 5.3 10.4 3.3 13.9 3.4 35.2 1 9.2-1.1 11.3-1.9 31.2-12.5 5.5-2.9 12.5-5.9 15.5-6.6 5-1.2 6-1.1 12 .9 5.8 1.9 7.1 2 12.3 1 3.2-.6 7.7-1.9 10-2.9s7.1-2.3 10.7-3c8.4-1.7 15.5-5.1 20.4-9.8 5.4-5.2 7.7-9.3 11.8-20.1l3.5-9.4 2.7 6.4C463.9 295 470 319 480.6 376.5l5.7 31V440c.1 26.9-.5 42.4-3.5 90-4.2 65.5-5.5 87.8-6.8 117.4-.7 18.2-1.1 21.1-2.7 22.7-1.7 1.8-2 1.6-7.3-4.8-9.8-12-27.3-29.5-35.5-35.6-14.3-10.6-29.5-17.1-49.8-21.2-53.7-10.6-83.8-6.4-118.5 16.7-14.9 10-31 24.1-68.5 60.1L177.2 701l-14.3-7c-22.1-10.7-71.9-28.4-116.8-41.5-22.7-6.6-29.2-7.6-32.1-5-1.1 1-2 2.2-2 2.6 0 1.7 6.1 3.9 28.1 10.4 28.4 8.4 31.7 9.5 64.4 22.5 14.9 5.9 31.1 12.2 36 13.9 5 1.8 9.6 3.5 10.2 3.9 2.6 1.7 16.7 23.3 21.7 33.5 7.3 14.7 12 29.4 14.7 46.2l2.3 13.7 2.8-10.9c11.1-42.9 26.8-77.5 48.1-106.3 8.9-11.9 27.7-30.7 38.4-38.3 26-18.4 55.9-26.2 81.1-21.1 32.5 6.5 46.5 12.7 66.1 28.9 5.3 4.4 13.5 10.9 18.4 14.6 7.7 5.8 9.7 8 17.7 19.8 11.2 16.4 11 16 15.5 30.1 7.4 23.3 14.7 39.7 23.9 54 4.7 7.3 33.6 43.3 44.2 55.2 11.5 12.8 24.1 23 35 28.6 8.5 4.3 33.2 10.1 54.4 12.8 14.8 1.8 45.1 1.8 61-.1 44-5.1 87.7-21.5 114.1-42.7 10.8-8.7 16.7-16.7 15.4-20.9-1.2-3.5-4.2-4.2-14.4-3.3-13.8 1.3-40.6 1-47.6-.5-34-7.1-63.6-24.5-91.9-54.1-52.2-54.5-94.4-146.4-115-250-8.5-42.6-11-68.2-11-110.5 0-30.9.2-35.3 2.3-48 1.3-7.7 2.6-19.1 3-25.3.5-9.8.9-11.6 2.6-12.8 4.8-3.6 14.1 2.1 34.9 21.3 18.3 16.9 23.7 21.3 26 21.3 2.7 0 1.7-4.1-4.9-19.4-10.6-25-18.7-38.8-51-87.1-8.8-13.2-18.9-29.3-22.5-35.8-13.8-25-19.4-31.7-26.7-31.7-5.1 0-11.3 6.9-21.6 24.2-4.8 8.1-10.3 16.7-12.2 19.2-1.9 2.5-4.2 6.3-5 8.3-3.1 7.4-8.8 11.3-16.6 11.3-2.3 0-9.2-1.2-15.4-2.7-6.2-1.4-12-2.3-13-1.9-2.8 1-1.1 4.8 6.4 14.7 3.7 4.9 7.6 10.5 8.6 12.3l1.8 3.3-3.7 7.5c-2.1 4.1-5.1 8.9-6.8 10.6-4.4 4.9-19.7 14.2-23.1 14.2-.8 0-2.1-2.4-3.1-6.3-1-3.4-6.4-18.1-12.1-32.7-5.7-14.6-11.8-31.1-13.5-36.8-3.2-9.8-3.5-10.5-9.7-16.3-3.6-3.3-8.5-7-11-8.2l-4.5-2.2-1.9 2.4c-3.2 4-2.6 9.4 5.7 47.1 3.9 18.1 4.7 23.2 4.7 32.5.1 17.1-3.6 30.3-8.7 31.3-9.5 1.9-24.3-43.9-31.6-97.2-6.2-45.9-11.7-60.8-24.2-66.1-2.1-.8-5.1-1.5-6.7-1.5-4.4 0-13 3.5-20.1 8.1l-6.3 4 .6 6.2c.3 3.4 3.7 17.2 7.6 30.8 11.3 39.9 14.2 57.5 12.2 72.3-.6 4.3-1.1 12-1.1 17.1 0 5.2-.5 10.6-1.1 12.2l-1.1 2.8-2.3-2.8c-3.2-3.6-9-22.2-11.6-36.7-1.1-6.3-2.8-15.3-3.9-20-1-4.7-2.3-12.1-2.9-16.5-6.7-49.2-9.1-62.3-14.6-79-5-15.3-12.5-29.5-19.8-37.2l-3-3.2-4.4 3.9c-4.1 3.6-9.9 6.8-15 8.4-2 .6-2.1.3-2.8-7.9-1-12.2.4-16.5 7.5-23.6 6.5-6.3 17.2-12 32-16.8 10.9-3.6 30.1-8.1 34.5-8.1 5.9-.1 14.6-2.8 17.3-5.3 4.6-4.4 13-7.4 35.7-12.6 26-6 51.4-10.4 71.7-12.6 32.1-3.3 45.5-1.4 85.7 12.1C518.8 35.4 535 43 545.3 52.1c8.1 7.1 13.3 15.8 25.1 41.6 6.2 13.6 21.4 46.4 33.8 72.8 12.4 26.4 23.9 51.5 25.6 55.7 2.2 5.5 6.1 11.7 13.4 21.5 5.7 7.6 23.1 33 38.7 56.3 15.7 23.4 44.5 66.3 64.1 95.5 40.6 60.3 51.7 77.4 62.2 96.5 4.2 7.4 11.8 20.7 17 29.5 17.4 29.5 25.7 46.5 37.3 76 16.8 42.8 26.1 79.8 32 126.5 3.2 24.8 9.1 48.1 16.5 65 7 15.9 10.1 30.6 10.1 48 .1 11.8-.7 14.5-5.5 20.2-1.9 2.2-3.7 5.1-4 6.4-.8 2.9-7.7 12.7-18.5 26.3-16.6 20.8-33.1 30.8-66.9 40.5-64.3 18.6-162.6 22.5-248.2 10-27.5-4-60.4-12.3-65.8-16.7-.7-.5-1.4-.8-1.7-.6-.2.2 8.2 8.1 18.8 17.4 55.2 49.1 59.8 53.8 68 70 5.3 10.6 11.6 38.1 9.2 40.4-3.5 3.4-131.6 5.1-171 2.3-105.3-7.5-164.9-23-191.2-49.9-7.1-7.1-7.7-9.4-4.3-16.6 2.5-5.2 5.1-8.1 12.2-13.9 5.4-4.4 23.6-14.2 35.3-19.1 37.1-15.3 60.4-25.9 75-34 37.7-21 62.4-46 75.5-76.4 3.8-8.9 9.4-27.5 8.8-29.3-.2-.5-6.1 6.3-13.1 15.1-7.1 8.7-18.3 21.6-25 28.5-73.6 76.7-161.7 81.1-263 13.2-16.1-10.8-24.2-14.1-50.2-20.3-19.4-4.7-36.3-6.8-51-6.3-12.8.5-17.6 1.8-21.4 5.9-3.2 3.5-2.8 10.1 1 16.7 6.1 10.7 27.5 30.6 52.1 48.5 6 4.4 10.8 8.2 10.8 8.6 0 .5-1.6 2.9-3.6 5.5-5.2 6.8-17.5 16.2-30.3 23.1-34.9 18.8-39.9 22.2-46.4 31.7-7.4 10.8-7 2.1-6.4 155 .4 97.8.9 137.2 1.7 138.7 3.8 7.1 18.5-6.1 35.5-31.9 9.5-14.5 12.2-19.4 30.6-55l13.7-26.5 10.3.3c18.1.4 47.2 4.8 101.1 15.2 67.8 13.1 66.9 13 96.4 13 41.6 0 88-4.6 130.4-13 58.1-11.5 124.5-35.4 191-68.6 34.5-17.3 53.1-28.1 88.5-51.4 41.1-27 64.2-40.9 90.1-53.8 24.2-12.1 41.4-22.9 59.4-37.3 38.5-30.6 65.2-64.1 74.9-93.6 5.6-17.2 7.6-28.5 7.5-43.3-.1-15.8-1.6-23.4-7.5-38.8-10.4-26.9-14.3-42.7-19.5-78.7-4.9-33.3-8.6-50-17.6-79-12.7-40.8-29.4-78.4-51.6-115.7-6-10.1-13.7-23.5-17.2-29.8-9-16.4-22.9-37.9-59-91.5-17.4-25.9-49.3-73.4-70.7-105.6-44.3-66.5-42.9-63.8-85.8-153.9-42.6-89.4-45.6-94.1-70-106.6C512 21.9 476.3 8.5 453.8 2.9c-8.1-2-30.2-3.3-37.3-2.3zM206 179.7c0 1 .9 15.3 2.1 31.8 2 28 2.1 30.3.6 33.8-2.1 4.9-3.8 4.4-5.9-1.9-4.9-14.7-5-50.4-.1-61.7 1.7-3.9 3.3-4.9 3.3-2z" fill="#ffeb3b"/></svg>