<svg version="1.0" xmlns="http://www.w3.org/2000/svg" width="1057.333" height="1706.667" viewBox="0 0 793 1280"><path d="M379.5 1.1c-9.5.9-13 2.1-16.8 5.7-2.3 2.2-4 2.7-10.5 3.3-4.2.4-9.8 1.6-12.4 2.8-4.1 1.7-4.8 2.4-4.8 4.9 0 1.5.7 3.7 1.5 4.8 2.2 2.9 1.8 5.5-1.5 8.9-2.2 2.3-3.7 5.5-5.4 11.9-2.3 8.1-2.9 9.3-8.5 15.1-6.9 7.2-7.4 9.2-3.9 16.2l2.2 4.5-2.2 3.6c-1.2 2.1-4.1 7.3-6.4 11.8-4.8 9.4-4.7 12.2.4 14.5 3.7 1.6 3.5.2 2.2 17-.6 7.9-.5 8.2 3.9 11.2 1.6 1.1 1.6 1.5-.3 6.5-1.1 2.9-2 6.9-2 8.9 0 4.9 3.3 11.4 7.2 14.3 3 2.2 3.6 2.3 16 1.6 7-.3 12.8-.3 12.8 0 0 2.2-7.9 15-11.1 17.9-4.3 3.8-6 4.1-16.7 2.6-6.5-1-12.7-4.2-25-12.8-7.8-5.5-21.4-12.3-32.7-16.3-13.4-4.8-26.8-5.2-46.5-1.5-8 1.5-17.6 3.6-21.4 4.7-8.1 2.3-9.2 2-17-4.6-12.5-10.6-22.5-14.6-36.5-14.6-4.7.1-11.4.7-14.9 1.4-6.3 1.4-6.4 1.4-7.4-.9-.8-1.8-.5-6 1.2-17 1.8-11.4 2.1-16 1.4-20.8-.5-3.4-.8-9.8-.8-14.3 0-7.9.1-8.2 6.8-21.5 7.9-15.5 11.8-21.5 14.3-22.1 3.4-.9 7.8 1.2 14.7 6.7 5.2 4.2 7.7 5.5 10.2 5.5 3.5 0 5 1.4 4.5 4.4-.3 2.3 4.9 7.9 10.6 11.3 5.2 3 15.6 6.3 20.2 6.3 8.5 0 18.7-6.2 22.8-13.9 2.1-4.1 2.3-5.6 2.3-20.3 0-12-.4-16.8-1.5-19.5-2.3-5.6-4.4-7.5-7.5-6.8-2.1.5-3.2-.2-6.3-4l-3.8-4.5h-7.4c-6.6 0-8.9-.6-18.7-4.5C170.6 3.7 160.7 2 142 2c-16 0-23.7 1.5-29.9 5.9-3.6 2.6-7.4 8.8-9.2 15.1-.9 3.3-3.3 6.6-8.8 12.5-4.2 4.4-10.3 11.2-13.6 15-3.3 3.9-11.2 12.7-17.7 19.7-17.6 19.3-35 41.4-42.6 54.5-5 8.4-12 29.2-13.2 38.9-.7 5.4-2 10.4-3.6 13.5-5.7 11.3-4.1 18 5.4 22.6 4.6 2.3 6.2 3.7 8.2 7.6 2.8 5.2 7.4 8.1 27.4 16.8 6.1 2.6 17.4 9.2 29.3 17 26.4 17.3 40 23.8 62.1 29.3 19.9 5 34.8 5.8 50.2 2.6 5.2-1.1 10.2-2 11.1-2 2.2 0 2.7 2.2 3.9 18.5 2.7 37.4 7.7 59.7 18 80.8 4.3 8.7 17.3 25 31 38.5 11.8 11.8 10.2 9.2 28.6 48.2 13.3 28.3 16.1 35 23.1 54.5 8.5 23.8 8.6 24.9 3.7 31.6-3.7 5.1-3.8 5.5-4.5 16.3-.7 10.7-.9 11.5-6.2 22.6-6.9 14.7-7.3 16-9.2 31-1.6 12.3-7 34.8-14.5 61-4.8 16.6-8.8 28.1-17.8 52-7.8 20.4-11.3 34.6-14.4 57.5-1.8 13.4-1.9 16.7-.9 31.5.6 9.1 1.7 18.7 2.5 21.5.8 2.7 2.1 7.5 3 10.5 2.3 8 2 15.5-1.4 33.4-1.7 8.7-3 18.6-3 22-.1 11.2-.9 13.1-10 24.1-9 10.9-19.6 27.7-22.9 36.3-1.7 4.6-4.1 13.8-5.3 20.5-2.7 15.9-2.1 36.4 2.3 75.2 2.8 25.3 3 30 2.6 48.5-.7 27.3-3.8 43.7-11.3 59.9-4.2 9.1-4.8 9.8-19 21.7-6.1 5.1-17.4 15.5-25 23.2-24.4 24.4-26.1 32-11.2 49.3 9.1 10.6 9.8 11.1 18.5 15.5 9.1 4.6 12.6 4.4 25.5-1.7 12.8-5.9 14.5-7.4 24.1-20.2 4.7-6.1 12.2-14.8 16.7-19.1 4.7-4.6 11-12.1 14.8-17.9 3.7-5.5 8-11.9 9.5-14.2 3.7-5.6 4.7-17.2 2.3-29.6-5.4-28.4 3.7-57.2 30.6-96.9 25-37 24.9-36.7 25.9-69.5 1.2-38.3 4.4-50.7 18.6-71.8 13.2-19.8 17.8-29.7 23.8-51.7 2.6-9.7 10-26.1 15.1-33.7 1.6-2.3 9.2-12.2 17-22 12.7-16.1 16-20.9 24.9-36.7 3.5-6.2 4.4-5.4 8.5 8.4 4.5 15.5 6 22.5 6 28.9 0 7.4 4.1 28.7 7.5 39 1.6 4.7 2.5 9.3 2.2 10.9-.3 1.5-1.7 8.1-3.2 14.7-2.4 11-2.6 13.1-2 25.1.8 14.9 1.8 11.7-11.1 35.4-8.4 15.4-20.7 44.8-24.9 59.5-3.8 12.9-3.8 21.8 0 43 1.8 10.7 2.9 21 3.2 31.1.5 14.5.4 15.6-2.7 28-3.5 14.1-12.6 42-21.5 66.4l-5.7 15.5.6 13.2c.6 14.8 1.6 18.4 6.8 22.9 4.1 3.6 5.7 3.9 27.6 5.4 21.6 1.5 30.6 4.7 43.2 15.6 6.9 5.9 10 7.2 19.2 8 5.8.5 8.7 1.4 13.8 4.3 6.1 3.4 7 3.6 14.7 3.4 10.8-.3 15.6-1.7 20.1-5.7 2-1.8 4.7-3.7 6-4 3.7-1.2 6.5-8 6-14.5-.5-7.1-2.4-10.9-6.6-13.8-3.2-2.1-17.4-7-26.9-9.3-3.2-.8-5.3-2.3-9.4-7.1-3.7-4.2-10-9.3-21.3-16.9-21.3-14.4-27.8-19.7-29-23.8-1.9-6.8 6.3-32.1 18.5-56.3 8.6-17.3 16-29.7 27.8-46.9 5.8-8.5 11.8-17.3 13.2-19.5 9.4-14.5 12.6-28.2 14.9-64.5 1.3-20 1.7-21.2 11.7-34.7 9.7-13 12.6-22 14.3-43.8 2-25.6 7.1-37.8 31.2-73.6 19.6-29.1 20.5-32.7 18.9-74.3-.6-16-1.8-33.4-2.6-38.7-1-6.8-1.4-16.9-1.3-35 .2-44.8-3-63.2-16.3-91.9-3.3-7.2-5.6-14.1-7.2-22-2.7-12.7-4.7-17.7-11.8-29.3-6.2-10-9.8-20.1-11-30.7-.6-5.8-2.1-11.4-4.6-17.5-3.4-8.4-3.7-9.9-4.1-21.6-.4-12.2.7-25.5 2.9-33.2 2.2-7.9 19-29.6 39.2-50.6 14.5-15.1 20.1-22.5 24.5-31.9 2.3-5.1 2.6-6.8 2.4-16.2-.1-5.8-.5-11.8-.8-13.4-.6-2.6-.4-2.8 1.7-2.3 1.3.3 6.8 2.4 12.2 4.7 20.9 8.8 36.9 11 62.3 8.6 9.3-.9 19.4-2.3 22.3-3.2 11.9-3.5 30.9-11.6 37.1-15.8 6.5-4.4 6.6-4.4 17-4.9 12-.6 20.3-2.9 32.6-8.8 9.3-4.5 19-12.6 19.8-16.7.4-1.5 0-8.5-.9-15.7-1-8.3-1.5-22-1.5-37.9 0-33.9-.9-37.4-17.2-64.1-7.4-12-9.6-16.7-15.6-33.5-10.1-28.3-12.9-37.5-14.3-46.5-.6-4.4-1.7-8.6-2.2-9.3-2-2.5-8.8-5.3-15-6.1-3.5-.5-11.5-3.1-18.5-6.1-9.4-3.9-13.1-5-15.3-4.5-2.1.5-3.9 0-6.7-1.7-2.6-1.6-6-2.5-11.2-3-4.1-.4-9.4-1-11.8-1.4-3.7-.6-4.6-.3-6.8 1.7-2.3 2.1-2.8 2.2-6.9 1.1-10.7-2.9-14.3-.3-18.1 13.1-1.3 4.6-3.7 11-5.4 14.2-1.6 3.1-3 7-3 8.5 0 3.3 7.9 16.5 11.2 18.8 1.3.9 2.7 2.2 3.1 2.9.5.8 2.7 1.3 5.3 1.3 3.9 0 4.6.3 5.7 2.7.6 1.6 1.6 3.1 2.2 3.5 2.1 1.5 8.6.8 11.4-1.3 2.2-1.6 5.3-2.3 14.2-3.1 6.5-.6 12.2-1.6 13.4-2.4 5-3.5 8.6-.5 12.5 10.6 4.4 12.6 4 17.4-3.6 43.7-4.4 15.2-7.4 30.5-7.4 37.6 0 2.1-.3 3.7-.7 3.5-.5-.2-4.6-2.2-9.3-4.5-12.4-6.1-23-9.4-30.8-9.5-8-.2-10.7 1-21 9.3-4 3.3-8.2 5.9-9.3 5.9-2.4 0-21.7-5.6-40.4-11.7-13.8-4.6-14.2-4.6-27.5-4.7-12 0-15 .4-27 3.4-18 4.4-28.1 4.6-36 .7-5.7-2.8-24.7-18.2-29.5-23.9l-2.8-3.3.7-11.9c.9-15 3.5-20.9 12.3-28.3 11.4-9.6 13.3-11.8 13.3-15.7 0-2.4 1.2-5.4 3.5-9 4.5-7.1 6.6-15.1 6.4-24.9-.1-4.9.3-8.3 1.1-9.2 1.5-1.8 1.5-10.1 0-14.1-.6-1.6-3.2-6-5.7-9.8-2.6-3.9-5.5-9.8-6.5-13.3-2.2-7.2-6.3-13-15.9-22.5-17-16.8-46.4-23.6-85.4-19.7z" fill="#ffeb3b"/></svg>