<svg version="1.0" xmlns="http://www.w3.org/2000/svg" width="1706.667" height="1706.667" viewBox="0 0 1280 1280"><g fill="#ffeb3b"><path d="M610 .6c-83.2 4.9-157 22.3-228.5 53.9C190.7 139 51.8 312.5 12.1 516 3.6 559.7.6 591.5.6 639.5c0 47.6 2.9 80.2 11 122 32.4 167.8 131.3 316.3 273.9 411.2 90.3 60.1 189 94.7 299.5 105 25.8 2.4 85.3 2.4 110.5 0 83.4-8 155.3-28.2 227.6-63.8 179.3-88.4 307.4-256.2 345.3-452.4 3.6-18.6 7.3-45 9.3-66.5 2.4-25.8 2.4-85.3 0-110.5-8-83.2-28.3-155.8-63.7-227.5-83.4-168.8-236.4-292.3-418.8-337.9-30.5-7.7-65.2-13.5-98.7-16.6C680.4 1 624.4-.2 610 .6zm95.7 69.2c19.8 30 33.9 71.4 38.3 112.9 1.9 17.1.8 53.6-2 69.3-4.1 23.1-12.2 46-22.3 63.2-7.3 12.4-12.4 19-26.9 34.9-24.5 27-37.8 45.6-49.3 69.4-13.4 27.5-19.5 50.5-22.6 84.9-2.2 23.9-.3 71.8 4.2 105.4.6 4.6.9 8.5.6 8.8-.9.9-18.9-27.9-25-40.1-14.6-29.3-24.3-61.4-27.7-91.9-1.6-13.5-1.3-40.4.4-53.7 5.7-42.6 22.4-77.1 54.6-112.9 12.3-13.6 23.7-27.3 30-35.9 43.8-59.9 52.1-114.4 33.5-219.9-1.4-7.8-2.5-14.8-2.5-15.4 0-1.6 10.2 11.2 16.7 21zm-139.3 84.4c17.6 27.1 27 61 26.9 97.3-.1 27.1-3.9 44.9-14.2 66-6 12.3-9.7 17.2-27.9 37.8-21.6 24.3-35 49.7-40.6 76.7-5.1 25.2-5.2 67.2 0 100l.5 3.5-2-2.5c-4.3-5.3-14.4-23.1-19-33.5-13.4-30.3-18.6-57.9-16.3-85.8 2.2-26.6 9.5-47.3 24.2-68.6 3.9-5.7 5.6-7.7 23.4-28.2 28-32.4 39.8-60.2 41.3-97.4.8-19.7-.8-36.1-7.3-76.5l-.7-4.4 3 3.4c1.7 1.9 5.6 7.4 8.7 12.2zm245.8-2.8c31.3 46.8 38 116.5 15.8 163.2-6.3 13.4-11 20.1-23.7 34.2-27.1 29.9-40.4 54.2-46.7 85.7-4.7 23.3-4.7 57.8-.2 91.4 1.3 9.3 1.2 9.4-.6 7.1-8.4-10.4-20.6-34.4-26.6-52.5-7.2-21.6-8.7-30.9-8.7-55.5.1-18.7.3-22.7 2.2-30.6 6.3-25.9 16.7-45.3 36-66.9 13.7-15.4 17.1-19.6 24.6-30.6 11.7-17 19.5-34.9 23.3-53.9 2.2-10.4 2.9-38.8 1.5-54.7-1.1-12.1-5.1-40.4-6.7-46.9l-.7-2.9 2.3 2c1.2 1.1 4.9 6 8.2 10.9zM893 685.2c-.1 110.2-36.9 213.5-100.1 280.2-10.6 11.3-27.3 25.7-39.8 34.2l-9.6 6.6 10-.6c5.5-.3 23.7-1.1 40.5-1.6 66.5-2.2 90.4-3.2 110.5-4.6 11.6-.8 26.4-1.8 33-2.1 11.3-.5 12.2-.4 14.8 1.7 5.9 4.7 2.8 9.2-11.2 15.7-37.4 17.5-78.8 30.8-114 36.5-13.6 2.2-14 2.2-177.6 2.6-115.5.2-167.8 0-177-.8-39.6-3.4-81.6-15.5-128.8-37.1-16.6-7.5-20.2-11.9-13.9-16.9 3.1-2.5 6.4-2.5 47.7.4 21.5 1.5 53 2.7 120 4.6 20.9.6 38.8 1.4 39.8 1.6 3.6 1.1 1.3-1.3-6.2-6.4-11.5-7.7-28.6-22.7-39.3-34.5-5.1-5.6-10-10.1-10.8-10-.8.1-10.7.5-22 .8-45.4 1.5-69.2-3.8-95.4-21.2-21.1-14-48.3-46-58.5-68.5-9.6-21.3-14.6-52.9-12.2-77.3 5.7-56.7 37.7-91.5 90.4-98.6l9.7-1.3v-6.1c0-3.3.3-7.7.6-9.8l.7-3.7H893v16.2z"/><path d="M377 727.1c-22.2 5.7-37.7 21-44.8 43.9-4.9 16.1-5.4 39.7-1.3 59 3.6 17 7.7 25.5 20.3 42.5 15 20.3 30 32.9 48.3 40.8 16.6 7.2 30.2 9.6 51.2 8.9l7.2-.2-5.9-10c-29-48.7-49.8-113.6-56.1-174.8l-1.3-12.2-5 .1c-2.8 0-8.5.9-12.6 2z"/></g></svg>