<?xml version="1.0" standalone="no"?>
<!DOCTYPE svg PUBLIC "-//W3C//DTD SVG 20010904//EN"
 "http://www.w3.org/TR/2001/REC-SVG-20010904/DTD/svg10.dtd">
<svg version="1.0" xmlns="http://www.w3.org/2000/svg"
 width="932.000000pt" height="1280.000000pt" viewBox="0 0 932.000000 1280.000000"
 preserveAspectRatio="xMidYMid meet">
<metadata>
Created by potrace 1.15, written by Peter Selinger 2001-2017
</metadata>
<g transform="translate(0.000000,1280.000000) scale(0.100000,-0.100000)"
fill="#ffeb3b" stroke="none">
<path d="M4165 12794 c-16 -3 -86 -11 -155 -20 -249 -30 -574 -83 -770 -125
-187 -40 -320 -90 -320 -119 0 -20 -77 -41 -181 -50 -284 -26 -647 -183 -801
-347 -94 -101 -130 -209 -178 -531 -59 -396 -74 -582 -74 -897 0 -288 0 -291
27 -378 47 -151 108 -250 227 -368 173 -172 444 -307 740 -368 58 -12 148 -36
201 -53 104 -33 139 -34 352 -10 92 11 113 19 312 125 55 29 125 59 155 66 50
12 60 11 120 -9 58 -19 71 -20 123 -10 32 6 77 19 100 29 23 10 71 23 107 30
84 17 155 51 204 98 54 52 77 93 118 201 l35 94 27 -64 c105 -238 166 -478
272 -1053 l57 -310 0 -325 c1 -269 -5 -424 -35 -900 -42 -655 -55 -878 -68
-1174 -7 -182 -11 -211 -27 -227 -17 -18 -20 -16 -73 48 -98 120 -273 295
-355 356 -143 106 -295 171 -498 212 -537 106 -838 64 -1185 -167 -149 -100
-310 -241 -685 -601 l-165 -157 -143 70 c-221 107 -719 284 -1168 415 -227 66
-292 76 -321 50 -11 -10 -20 -22 -20 -26 0 -17 61 -39 281 -104 284 -84 317
-95 644 -225 149 -59 311 -122 360 -139 50 -18 96 -35 102 -39 26 -17 167
-233 217 -335 73 -147 120 -294 147 -462 l23 -137 28 109 c111 429 268 775
481 1063 89 119 277 307 384 383 260 184 559 262 811 211 325 -65 465 -127
661 -289 53 -44 135 -109 184 -146 77 -58 97 -80 177 -198 112 -164 110 -160
155 -301 74 -233 147 -397 239 -540 47 -73 336 -433 442 -552 115 -128 241
-230 350 -286 85 -43 332 -101 544 -128 148 -18 451 -18 610 1 440 51 877 215
1141 427 108 87 167 167 154 209 -12 35 -42 42 -144 33 -138 -13 -406 -10
-476 5 -340 71 -636 245 -919 541 -522 545 -944 1464 -1150 2500 -85 426 -110
682 -110 1105 0 309 2 353 23 480 13 77 26 191 30 253 5 98 9 116 26 128 48
36 141 -21 349 -213 183 -169 237 -213 260 -213 27 0 17 41 -49 194 -106 250
-187 388 -510 871 -88 132 -189 293 -225 358 -138 250 -194 317 -267 317 -51
0 -113 -69 -216 -242 -48 -81 -103 -167 -122 -192 -19 -25 -42 -63 -50 -83
-31 -74 -88 -113 -166 -113 -23 0 -92 12 -154 27 -62 14 -120 23 -130 19 -28
-10 -11 -48 64 -147 37 -49 76 -105 86 -123 l18 -33 -37 -75 c-21 -41 -51 -89
-68 -106 -44 -49 -197 -142 -231 -142 -8 0 -21 24 -31 63 -10 34 -64 181 -121
327 -57 146 -118 311 -135 368 -32 98 -35 105 -97 163 -36 33 -85 70 -110 82
l-45 22 -19 -24 c-32 -40 -26 -94 57 -471 39 -181 47 -232 47 -325 1 -171 -36
-303 -87 -313 -95 -19 -243 439 -316 972 -62 459 -117 608 -242 661 -21 8 -51
15 -67 15 -44 0 -130 -35 -201 -81 l-63 -40 6 -62 c3 -34 37 -172 76 -308 113
-399 142 -575 122 -723 -6 -43 -11 -120 -11 -171 0 -52 -5 -106 -11 -122 l-11
-28 -23 28 c-32 36 -90 222 -116 367 -11 63 -28 153 -39 200 -10 47 -23 121
-29 165 -67 492 -91 623 -146 790 -50 153 -125 295 -198 372 l-30 32 -44 -39
c-41 -36 -99 -68 -150 -84 -20 -6 -21 -3 -28 79 -10 122 4 165 75 236 65 63
172 120 320 168 109 36 301 81 345 81 59 1 146 28 173 53 46 44 130 74 357
126 260 60 514 104 717 126 321 33 455 14 857 -121 319 -108 481 -184 584
-275 81 -71 133 -158 251 -416 62 -136 214 -464 338 -728 124 -264 239 -515
256 -557 22 -55 61 -117 134 -215 57 -76 231 -330 387 -563 157 -234 445 -663
641 -955 406 -603 517 -774 622 -965 42 -74 118 -207 170 -295 174 -295 257
-465 373 -760 168 -428 261 -798 320 -1265 32 -248 91 -481 165 -650 70 -159
101 -306 101 -480 1 -118 -7 -145 -55 -202 -19 -22 -37 -51 -40 -64 -8 -29
-77 -127 -185 -263 -166 -208 -331 -308 -669 -405 -643 -186 -1626 -225 -2482
-100 -275 40 -604 123 -658 167 -7 5 -14 8 -17 6 -2 -2 82 -81 188 -174 552
-491 598 -538 680 -700 53 -106 116 -381 92 -404 -35 -34 -1316 -51 -1710 -23
-1053 75 -1649 230 -1912 499 -71 71 -77 94 -43 166 25 52 51 81 122 139 54
44 236 142 353 191 371 153 604 259 750 340 377 210 624 460 755 764 38 89 94
275 88 293 -2 5 -61 -63 -131 -151 -71 -87 -183 -216 -250 -285 -736 -767
-1617 -811 -2630 -132 -161 108 -242 141 -502 203 -194 47 -363 68 -510 63
-128 -5 -176 -18 -214 -59 -32 -35 -28 -101 10 -167 61 -107 275 -306 521
-485 60 -44 108 -82 108 -86 0 -5 -16 -29 -36 -55 -52 -68 -175 -162 -303
-231 -349 -188 -399 -222 -464 -317 -74 -108 -70 -21 -64 -1550 4 -978 9
-1372 17 -1387 38 -71 185 61 355 319 95 145 122 194 306 550 l137 265 103 -3
c181 -4 472 -48 1011 -152 678 -131 669 -130 964 -130 416 0 880 46 1304 130
581 115 1245 354 1910 686 345 173 531 281 885 514 411 270 642 409 901 538
242 121 414 229 594 373 385 306 652 641 749 936 56 172 76 285 75 433 -1 158
-16 234 -75 388 -104 269 -143 427 -195 787 -49 333 -86 500 -176 790 -127
408 -294 784 -516 1157 -60 101 -137 235 -172 298 -90 164 -229 379 -590 915
-174 259 -493 734 -707 1056 -443 665 -429 638 -858 1539 -426 894 -456 941
-700 1066 -205 105 -562 239 -787 295 -81 20 -302 33 -373 23z m-2105 -1791
c0 -10 9 -153 21 -318 20 -280 21 -303 6 -338 -21 -49 -38 -44 -59 19 -49 147
-50 504 -1 617 17 39 33 49 33 20z"/>
</g>
</svg>
