<?xml version="1.0" standalone="no"?>
<!DOCTYPE svg PUBLIC "-//W3C//DTD SVG 20010904//EN"
 "http://www.w3.org/TR/2001/REC-SVG-20010904/DTD/svg10.dtd">
<svg version="1.0" xmlns="http://www.w3.org/2000/svg"
 width="793.000000pt" height="1280.000000pt" viewBox="0 0 793.000000 1280.000000"
 preserveAspectRatio="xMidYMid meet">
<metadata>
Created by potrace 1.15, written by Peter Selinger 2001-2017
</metadata>
<g transform="translate(0.000000,1280.000000) scale(0.100000,-0.100000)"
fill="#ff0000" stroke="none">
<path d="M3795 12789 c-95 -9 -130 -21 -168 -57 -23 -22 -40 -27 -105 -33 -42
-4 -98 -16 -124 -28 -41 -17 -48 -24 -48 -49 0 -15 7 -37 15 -48 22 -29 18
-55 -15 -89 -22 -23 -37 -55 -54 -119 -23 -81 -29 -93 -85 -151 -69 -72 -74
-92 -39 -162 l22 -45 -22 -36 c-12 -21 -41 -73 -64 -118 -48 -94 -47 -122 4
-145 37 -16 35 -2 22 -170 -6 -79 -5 -82 39 -112 16 -11 16 -15 -3 -65 -11
-29 -20 -69 -20 -89 0 -49 33 -114 72 -143 30 -22 36 -23 160 -16 70 3 128 3
128 0 0 -22 -79 -150 -111 -179 -43 -38 -60 -41 -167 -26 -65 10 -127 42 -250
128 -78 55 -214 123 -327 163 -134 48 -268 52 -465 15 -80 -15 -176 -36 -214
-47 -81 -23 -92 -20 -170 46 -125 106 -225 146 -365 146 -47 -1 -114 -7 -149
-14 -63 -14 -64 -14 -74 9 -8 18 -5 60 12 170 18 114 21 160 14 208 -5 34 -8
98 -8 143 0 79 1 82 68 215 79 155 118 215 143 221 34 9 78 -12 147 -67 52
-42 77 -55 102 -55 35 0 50 -14 45 -44 -3 -23 49 -79 106 -113 52 -30 156 -63
202 -63 85 0 187 62 228 139 21 41 23 56 23 203 0 120 -4 168 -15 195 -23 56
-44 75 -75 68 -21 -5 -32 2 -63 40 l-38 45 -74 0 c-66 0 -89 6 -187 45 -142
58 -241 75 -428 75 -160 0 -237 -15 -299 -59 -36 -26 -74 -88 -92 -151 -9 -33
-33 -66 -88 -125 -42 -44 -103 -112 -136 -150 -33 -39 -112 -127 -177 -197
-176 -193 -350 -414 -426 -545 -50 -84 -120 -292 -132 -389 -7 -54 -20 -104
-36 -135 -57 -113 -41 -180 54 -226 46 -23 62 -37 82 -76 28 -52 74 -81 274
-168 61 -26 174 -92 293 -170 264 -173 400 -238 621 -293 199 -50 348 -58 502
-26 52 11 102 20 111 20 22 0 27 -22 39 -185 27 -374 77 -597 180 -808 43 -87
173 -250 310 -385 118 -118 102 -92 286 -482 133 -283 161 -350 231 -545 85
-238 86 -249 37 -316 -37 -51 -38 -55 -45 -163 -7 -107 -9 -115 -62 -226 -69
-147 -73 -160 -92 -310 -16 -123 -70 -348 -145 -610 -48 -166 -88 -281 -178
-520 -78 -204 -113 -346 -144 -575 -18 -134 -19 -167 -9 -315 6 -91 17 -187
25 -215 8 -27 21 -75 30 -105 23 -80 20 -155 -14 -334 -17 -87 -30 -186 -30
-220 -1 -112 -9 -131 -100 -241 -90 -109 -196 -277 -229 -363 -17 -46 -41
-138 -53 -205 -27 -159 -21 -364 23 -752 28 -253 30 -300 26 -485 -7 -273 -38
-437 -113 -599 -42 -91 -48 -98 -190 -217 -61 -51 -174 -155 -250 -232 -244
-244 -261 -320 -112 -493 91 -106 98 -111 185 -155 91 -46 126 -44 255 17 128
59 145 74 241 202 47 61 122 148 167 191 47 46 110 121 148 179 37 55 80 119
95 142 37 56 47 172 23 296 -54 284 37 572 306 969 250 370 249 367 259 695
12 383 44 507 186 718 132 198 178 297 238 517 26 97 100 261 151 337 16 23
92 122 170 220 127 161 160 209 249 367 35 62 44 54 85 -84 45 -155 60 -225
60 -289 0 -74 41 -287 75 -390 16 -47 25 -93 22 -109 -3 -15 -17 -81 -32 -147
-24 -110 -26 -131 -20 -251 8 -149 18 -117 -111 -354 -84 -154 -207 -448 -249
-595 -38 -129 -38 -218 0 -430 18 -107 29 -210 32 -311 5 -145 4 -156 -27
-280 -35 -141 -126 -420 -215 -664 l-57 -155 6 -132 c6 -148 16 -184 68 -229
41 -36 57 -39 276 -54 216 -15 306 -47 432 -156 69 -59 100 -72 192 -80 58 -5
87 -14 138 -43 61 -34 70 -36 147 -34 108 3 156 17 201 57 20 18 47 37 60 40
37 12 65 80 60 145 -5 71 -24 109 -66 138 -32 21 -174 70 -269 93 -32 8 -53
23 -94 71 -37 42 -100 93 -213 169 -213 144 -278 197 -290 238 -19 68 63 321
185 563 86 173 160 297 278 469 58 85 118 173 132 195 94 145 126 282 149 645
13 200 17 212 117 347 97 130 126 220 143 438 20 256 71 378 312 736 196 291
205 327 189 743 -6 160 -18 334 -26 387 -10 68 -14 169 -13 350 2 448 -30 632
-163 919 -33 72 -56 141 -72 220 -27 127 -47 177 -118 293 -62 100 -98 201
-110 307 -6 58 -21 114 -46 175 -34 84 -37 99 -41 216 -4 122 7 255 29 332 22
79 190 296 392 506 145 151 201 225 245 319 23 51 26 68 24 162 -1 58 -5 118
-8 134 -6 26 -4 28 17 23 13 -3 68 -24 122 -47 209 -88 369 -110 623 -86 93 9
194 23 223 32 119 35 309 116 371 158 65 44 66 44 170 49 120 6 203 29 326 88
93 45 190 126 198 167 4 15 0 85 -9 157 -10 83 -15 220 -15 379 0 339 -9 374
-172 641 -74 120 -96 167 -156 335 -101 283 -129 375 -143 465 -6 44 -17 86
-22 93 -20 25 -88 53 -150 61 -35 5 -115 31 -185 61 -94 39 -131 50 -153 45
-21 -5 -39 0 -67 17 -26 16 -60 25 -112 30 -41 4 -94 10 -118 14 -37 6 -46 3
-68 -17 -23 -21 -28 -22 -69 -11 -107 29 -143 3 -181 -131 -13 -46 -37 -110
-54 -142 -16 -31 -30 -70 -30 -85 0 -33 79 -165 112 -188 13 -9 27 -22 31 -29
5 -8 27 -13 53 -13 39 0 46 -3 57 -27 6 -16 16 -31 22 -35 21 -15 86 -8 114
13 22 16 53 23 142 31 65 6 122 16 134 24 50 35 86 5 125 -106 44 -126 40
-174 -36 -437 -44 -152 -74 -305 -74 -376 0 -21 -3 -37 -7 -35 -5 2 -46 22
-93 45 -124 61 -230 94 -308 95 -80 2 -107 -10 -210 -93 -40 -33 -82 -59 -93
-59 -24 0 -217 56 -404 117 -138 46 -142 46 -275 47 -120 0 -150 -4 -270 -34
-180 -44 -281 -46 -360 -7 -57 28 -247 182 -295 239 l-28 33 7 119 c9 150 35
209 123 283 114 96 133 118 133 157 0 24 12 54 35 90 45 71 66 151 64 249 -1
49 3 83 11 92 15 18 15 101 0 141 -6 16 -32 60 -57 98 -26 39 -55 98 -65 133
-22 72 -63 130 -159 225 -170 168 -464 236 -854 197z"/>
</g>
</svg>
